<?xml version="1.0" encoding="UTF-8"?>
<svg width="26px" height="26px" viewBox="0 0 26 26" version="1.1" xmlns="http://www.w3.org/2000/svg" xmlns:xlink="http://www.w3.org/1999/xlink">
    <!-- Generator: Sketch 43.1 (39012) - http://www.bohemiancoding.com/sketch -->
    <title>Combined Shape</title>
    <desc>Created with Sketch.</desc>
    <defs></defs>
    <g id="Welcome" stroke="none" stroke-width="1" fill="none" fill-rule="evenodd">
        <g id="Desktop-Copy-7" transform="translate(-675.000000, -130.000000)" fill="#D8D8D8">
            <path d="M687.785464,136.693287 L682.210424,131.118248 C681.040549,129.948372 679.140274,129.951903 677.969981,131.122195 L676.122195,132.969981 C674.950139,134.142038 674.950629,136.042806 676.118248,137.210424 L681.693287,142.785464 L676.118248,148.360504 C674.950629,149.528122 674.950139,151.428891 676.122195,152.600947 L677.969981,154.448733 C679.140274,155.619026 681.040549,155.622556 682.210424,154.452681 L687.785464,148.877641 L693.360504,154.452681 C694.53038,155.622556 696.430654,155.619026 697.600947,154.448733 L699.448733,152.600947 C700.620789,151.428891 700.620299,149.528122 699.452681,148.360504 L693.877641,142.785464 L699.452681,137.210424 C700.620299,136.042806 700.620789,134.142038 699.448733,132.969981 L697.600947,131.122195 C696.430654,129.951903 694.53038,129.948372 693.360504,131.118248 L687.785464,136.693287 Z" id="Combined-Shape"></path>
        </g>
    </g>
</svg>