<?xml version="1.0" encoding="UTF-8"?>
<svg width="1024px" height="236px" viewBox="0 0 1024 236" version="1.1" xmlns="http://www.w3.org/2000/svg" xmlns:xlink="http://www.w3.org/1999/xlink">
    <!-- Generator: Sketch 43.1 (39012) - http://www.bohemiancoding.com/sketch -->
    <title>Fill 1 Copy</title>
    <desc>Created with Sketch.</desc>
    <defs></defs>
    <g id="Welcome" stroke="none" stroke-width="1" fill="none" fill-rule="evenodd">
        <g id="Desktop-Copy" transform="translate(0.000000, -412.000000)" fill="#DEDEDE">
            <path d="M-6,557.717476 C-1.974,557.717476 2.055,557.577191 6.076,557.776828 C8.146,557.879344 8.758,557.021444 8.749,554.198199 C8.669,530.941838 8.703,507.686825 8.704,484.431812 C8.704,479.806438 8.738,479.40042 12.077,479.87793 C22.582,481.376556 32.22,476.734996 41.973,472.749 C47.143,470.635276 52.286,468.37722 57.513,466.556206 C59.489,465.868268 60.497,464.938877 60.167,462.110236 C59.849,459.373321 60.635,458.43179 62.761,458.487095 C69.672,458.662451 76.588,458.617938 83.5,458.507328 C85.281,458.48035 85.999,459.123775 85.933,461.678589 C85.805,466.630396 85.968,471.594343 85.864,476.548848 C85.814,478.926956 86.283,479.91435 88.196,479.85365 C93.042,479.701224 92.211,479.979097 92.165,474.59834 C92.145,472.284979 92.508,471.165393 94.464,471.249025 C98.574,471.424382 102.691,471.397404 106.802,471.258467 C108.553,471.199116 109.054,472.062411 109.031,474.338003 C108.952,482.246596 109.054,490.156538 108.969,498.063781 C108.944,500.398725 109.53,501.112292 111.235,501.092059 C119.373,500.998985 127.513,500.998985 135.651,501.092059 C137.359,501.113641 137.911,500.386585 137.921,498.062433 C137.949,491.842661 138.025,491.84401 142.708,491.84401 C150.759,491.84401 158.812,491.7334 166.861,491.912804 C169.209,491.965411 170.009,491.201934 169.975,487.835083 C169.831,473.79035 169.955,459.740222 169.877,445.692791 C169.863,443.147419 170.304,442.184305 172.343,442.201841 C185.12,442.317846 197.897,442.308404 210.674,442.209934 C212.587,442.193748 213.049,443.13393 213.006,445.513387 C212.904,451.060059 213.093,456.617521 212.925,462.15475 C212.837,465.067022 213.623,465.719889 215.631,465.690214 C224.207,465.562068 232.785,465.726634 241.36,465.570162 C243.482,465.532392 244.025,466.448295 243.998,469.198699 C243.893,479.821276 244.024,490.4479 243.91,501.070477 C243.879,503.892373 244.513,504.669338 246.58,504.651803 C260.494,504.539844 274.41,504.665292 288.324,504.522308 C290.625,504.499377 291.347,505.301972 291.272,508.465139 C291.115,515.217726 291.244,515.223121 296.169,515.217726 C299.615,515.215028 299.617,515.215028 299.617,510.684077 C299.618,492.384918 299.678,474.087108 299.563,455.790646 C299.542,452.484496 300.082,451.056012 302.704,451.409423 C304.87,451.700785 307.084,451.298814 309.26,451.518684 C311.305,451.723717 311.76,450.594689 311.734,448.039875 C311.638,438.598933 311.783,429.151247 311.645,419.710305 C311.601,416.687423 312.351,415.964413 314.483,415.99274 C324.721,416.126281 334.962,416.135723 345.199,415.987344 C347.414,415.953622 348.014,416.878966 347.975,419.78989 C347.851,429.229483 347.994,438.677169 347.887,448.11946 C347.857,450.775441 348.462,451.544313 350.419,451.522731 C361.271,451.409423 372.124,451.542964 382.975,451.406726 C385.14,451.378399 385.799,452.190436 385.785,455.159362 C385.691,473.929287 385.779,492.699211 385.692,511.469136 C385.679,514.35578 386.225,515.351267 388.457,515.285171 C395.017,515.096325 401.583,515.159723 408.146,515.256844 C409.807,515.282473 410.454,514.67412 410.449,512.282522 C410.397,487.375108 410.392,462.466346 410.455,437.557583 C410.461,434.965 409.745,434.312133 407.997,434.409254 C407.07,434.460512 405.641,435.267153 405.302,433.328786 C404.965,431.409303 404.788,429.19576 405.419,427.411167 C405.922,425.989428 407.335,426.708391 408.336,426.716484 C409.683,426.727276 410.667,426.349584 410.4,424.203486 C409.957,420.635649 411.347,420.248515 413.547,420.252562 C458.093,420.320007 502.638,420.302471 547.184,420.302471 C552.609,420.302471 558.037,420.382056 563.461,420.256609 C565.248,420.214793 566.139,420.893289 565.85,423.425172 C565.529,426.210647 566.551,427.0645 568.41,426.671971 C570.672,426.191763 571.168,427.620247 571.174,430.45698 C571.182,433.381393 570.783,435.045934 568.318,434.476698 C566.338,434.019422 565.799,435.233431 565.812,437.847596 C565.891,454.018193 565.893,470.192837 565.811,486.366132 C565.799,489.011323 566.375,489.831453 568.34,489.774799 C573.937,489.615629 579.543,489.844942 585.141,489.656096 C587.307,489.583256 587.963,490.430364 587.953,493.404685 C587.871,519.02162 587.957,544.639903 587.848,570.255489 C587.832,573.762626 588.395,575.027893 591.15,574.808022 C595.424,574.466751 599.73,574.515311 604.008,574.793184 C606.588,574.960448 607.428,574.107944 607.408,570.370145 C607.27,545.107971 607.336,519.845797 607.336,494.582274 C607.336,489.722192 607.348,489.484786 611.062,489.796382 C613.828,490.028392 615.209,489.157004 614.711,485.060398 C614.4,482.508282 615.789,482.622938 617.07,482.626985 C623.371,482.64587 629.676,482.490746 635.973,482.710617 C638.316,482.791551 638.914,481.840577 638.895,478.734064 C638.789,460.557654 638.898,442.375849 638.791,424.198091 C638.771,421.082135 639.379,420.110928 641.719,420.229631 C646.525,420.472433 651.344,420.367218 656.156,420.2674 C657.727,420.235026 658.383,420.894638 658.297,423.09604 C658.191,425.80328 658.365,428.532102 658.244,431.236644 C658.137,433.647126 658.697,434.604844 660.59,434.519863 C664.35,434.348553 668.123,434.666893 671.875,434.398462 C674.346,434.220408 675.178,435.126868 675.137,438.635353 C674.984,451.85456 675.193,465.080511 675.002,478.29702 C674.947,482.067192 675.85,482.872485 678.412,482.709268 C682.691,482.438139 686.988,482.737595 691.273,482.589216 C693.203,482.521771 694.361,483.03705 693.982,486.046443 C693.607,489.034254 694.604,489.840895 696.756,489.781544 C703.141,489.606187 709.533,489.838197 715.918,489.653398 C718.117,489.59 718.715,490.509949 718.707,493.438408 C718.627,518.936639 718.703,544.434871 718.607,569.933102 C718.596,573.170459 719.219,574.194273 721.664,574.086361 C727.172,573.842211 732.691,573.858397 738.201,574.080966 C740.578,574.176738 741.312,573.312093 741.299,569.983012 C741.193,544.720837 741.291,519.458663 741.184,494.196489 C741.168,490.717679 741.709,489.596745 744.471,489.623723 C763.373,489.804475 782.275,489.718145 801.18,489.718145 C804.777,489.718145 804.779,489.716797 804.779,485.03342 C804.781,478.305114 804.85,471.575458 804.744,464.848501 C804.703,462.3382 805.129,460.870599 807.184,461.398018 C814.428,463.2568 820.141,458.460117 825.924,453.760554 C831.674,449.085271 837.521,444.629859 843.289,439.995043 C844.506,439.017091 845.498,439.114212 846.676,440.04765 C854.947,446.597902 863.248,453.083407 871.529,459.609378 C872.988,460.75864 874.467,461.511325 876.227,461.427694 C879.373,461.279315 882.529,461.478952 885.678,461.349458 C887.307,461.280664 887.793,462.119679 887.773,464.238799 C887.707,471.675277 887.814,479.114453 887.711,486.548234 C887.676,489.042347 888.281,489.765357 890.109,489.774799 C896.15,489.804475 896.15,489.897549 896.15,498.194625 C896.15,521.449638 896.191,544.705999 896.1,567.961012 C896.088,571.027059 896.635,571.994219 899.002,571.961846 C910.641,571.794582 922.281,571.790536 933.92,571.961846 C936.391,571.996917 937.184,571.195671 937.168,567.706071 C937.057,543.270771 937.109,518.835472 937.109,494.398824 C937.109,489.72489 937.133,489.401154 940.443,489.812568 C943.479,490.188911 944.396,488.473112 945.059,484.770385 C947.689,470.059296 950.594,455.435886 953.4,440.766613 C954.211,441.008066 954.26,441.78638 954.375,442.387989 C957.191,457.050518 960.051,471.698208 962.729,486.407948 C963.209,489.047743 964.021,489.796382 965.92,489.770752 C970.738,489.706005 970.176,488.787405 970.184,495.622275 C970.207,512.974507 970.244,530.328089 970.143,547.68167 C970.125,550.692412 970.836,551.450493 972.975,551.407328 C979.117,551.28188 979.119,551.400584 979.119,543.007736 C979.119,516.210515 979.16,489.411945 979.064,462.616073 C979.053,459.357134 979.701,458.344111 982.131,458.477652 C986.543,458.719105 986.537,458.527562 987.619,452.802836 C990.029,440.05979 992.459,427.324838 994.863,414.580443 C995.037,413.660494 995.162,412.754034 995.984,412 C997.455,415.422156 997.662,419.315077 998.383,422.939568 C1000.502,433.599914 1002.48,444.314216 1004.371,455.05145 C1004.865,457.861206 1005.773,458.71371 1007.914,458.635474 C1012.809,458.457419 1012.182,457.714176 1012.191,464.43304 C1012.217,481.785272 1012.252,499.138854 1012.152,516.492435 C1012.135,519.470803 1012.809,520.649741 1014.965,520.173579 C1017.379,519.639416 1018.104,520.965383 1018.033,524.23916 C1017.861,532.259712 1018.027,540.292403 1017.945,548.31835 C1017.924,550.607431 1018.441,551.468028 1020.184,551.385746 C1023.33,551.234669 1026.488,551.206342 1029.633,551.393839 C1031.557,551.508495 1032.246,550.746368 1032.197,548.033732 C1032.07,540.837358 1032.227,533.631541 1032.117,526.433818 C1032.078,523.87226 1032.561,522.914542 1034.592,522.952311 C1042.729,523.093945 1050.869,523.116876 1059.006,522.940171 C1061.201,522.892959 1061.607,523.974776 1061.598,526.62806 C1061.529,545.515339 1061.629,564.403967 1061.502,583.289897 C1061.479,586.780847 1062.273,587.900433 1064.754,587.513299 C1066.309,587.270497 1067.916,587.289381 1069.473,587.51195 C1071.617,587.816801 1072.109,586.625723 1072.104,583.895552 C1072.041,554.14829 1072.064,524.399679 1072.064,494.651068 C1072.064,489.720843 1072.064,489.719494 1075.744,489.718145 L1102.521,489.718145 L1102.521,671.484375 C732.068,671.828344 361.615,671.499213 -6,671.484375 C-6.945,671.484375 -6,557.717476 -6,557.717476 Z" id="Fill-1-Copy"></path>
        </g>
    </g>
</svg>
