<?xml version="1.0" encoding="UTF-8"?>
<svg width="1024px" height="157px" viewBox="0 0 1024 157" version="1.1" xmlns="http://www.w3.org/2000/svg" xmlns:xlink="http://www.w3.org/1999/xlink">
    <!-- Generator: Sketch 43.1 (39012) - http://www.bohemiancoding.com/sketch -->
    <title>Fill 1</title>
    <desc>Created with Sketch.</desc>
    <defs></defs>
    <g id="Welcome" stroke="none" stroke-width="1" fill="none" fill-rule="evenodd">
        <g id="Desktop-Copy" transform="translate(0.000000, -491.000000)" fill="#E8E8E8">
            <path d="M-85,599.027 C-80.974,599.027 -76.945,598.923 -72.924,599.071 C-70.854,599.147 -70.242,598.511 -70.251,596.418 C-70.331,579.177 -70.297,561.937 -70.296,544.697 C-70.296,541.268 -70.262,540.967 -66.923,541.321 C-56.418,542.432 -46.78,538.991 -37.027,536.036 C-31.857,534.469 -26.714,532.795 -21.487,531.445 C-19.511,530.935 -18.503,530.246 -18.833,528.149 C-19.151,526.12 -18.365,525.422 -16.239,525.463 C-9.328,525.593 -2.412,525.56 4.5,525.478 C6.281,525.458 6.999,525.935 6.933,527.829 C6.805,531.5 6.968,535.18 6.864,538.853 C6.814,540.616 7.283,541.348 9.196,541.303 C14.042,541.19 13.211,541.396 13.165,537.407 C13.145,535.692 13.508,534.862 15.464,534.924 C19.574,535.054 23.691,535.034 27.802,534.931 C29.553,534.887 30.054,535.527 30.031,537.214 C29.952,543.077 30.054,548.941 29.969,554.803 C29.944,556.534 30.53,557.063 32.235,557.048 C40.373,556.979 48.513,556.979 56.651,557.048 C58.359,557.064 58.911,556.525 58.921,554.802 C58.949,550.191 59.025,550.192 63.708,550.192 C71.759,550.192 79.812,550.11 87.861,550.243 C90.209,550.282 91.009,549.716 90.975,547.22 C90.831,536.808 90.955,526.392 90.877,515.978 C90.863,514.091 91.304,513.377 93.343,513.39 C106.12,513.476 118.897,513.469 131.674,513.396 C133.587,513.384 134.049,514.081 134.006,515.845 C133.904,519.957 134.093,524.077 133.925,528.182 C133.837,530.341 134.623,530.825 136.631,530.803 C145.207,530.708 153.785,530.83 162.36,530.714 C164.482,530.686 165.025,531.365 164.998,533.404 C164.893,541.279 165.024,549.157 164.91,557.032 C164.879,559.124 165.513,559.7 167.58,559.687 C181.494,559.604 195.41,559.697 209.324,559.591 C211.625,559.574 212.347,560.169 212.272,562.514 C212.115,567.52 212.244,567.524 217.169,567.52 C220.615,567.518 220.617,567.518 220.617,564.159 C220.618,550.593 220.678,537.028 220.563,523.464 C220.542,521.013 221.082,519.954 223.704,520.216 C225.87,520.432 228.084,520.134 230.26,520.297 C232.305,520.449 232.76,519.612 232.734,517.718 C232.638,510.719 232.783,503.715 232.645,496.716 C232.601,494.475 233.351,493.939 235.483,493.96 C245.721,494.059 255.962,494.066 266.199,493.956 C268.414,493.931 269.014,494.617 268.975,496.775 C268.851,503.773 268.994,510.777 268.887,517.777 C268.857,519.746 269.462,520.316 271.419,520.3 C282.271,520.216 293.124,520.315 303.975,520.214 C306.14,520.193 306.799,520.795 306.785,522.996 C306.691,536.911 306.779,550.826 306.692,564.741 C306.679,566.881 307.225,567.619 309.457,567.57 C316.017,567.43 322.583,567.477 329.146,567.549 C330.807,567.568 331.454,567.117 331.449,565.344 C331.397,546.879 331.392,528.413 331.455,509.947 C331.461,508.025 330.745,507.541 328.997,507.613 C328.07,507.651 326.641,508.249 326.302,506.812 C325.965,505.389 325.788,503.748 326.419,502.425 C326.922,501.371 328.335,501.904 329.336,501.91 C330.683,501.918 331.667,501.638 331.4,500.047 C330.957,497.402 332.347,497.115 334.547,497.118 C379.093,497.168 423.638,497.155 468.184,497.155 C473.609,497.155 479.037,497.214 484.461,497.121 C486.248,497.09 487.139,497.593 486.85,499.47 C486.529,501.535 487.551,502.168 489.41,501.877 C491.672,501.521 492.168,502.58 492.174,504.683 C492.182,506.851 491.783,508.085 489.318,507.663 C487.338,507.324 486.799,508.224 486.812,510.162 C486.891,522.15 486.893,534.141 486.811,546.131 C486.799,548.092 487.375,548.7 489.34,548.658 C494.937,548.54 500.543,548.71 506.141,548.57 C508.307,548.516 508.963,549.144 508.953,551.349 C508.871,570.34 508.957,589.332 508.848,608.322 C508.832,610.922 509.395,611.86 512.15,611.697 C516.424,611.444 520.73,611.48 525.008,611.686 C527.588,611.81 528.428,611.178 528.408,608.407 C528.27,589.679 528.336,570.951 528.336,552.222 C528.336,548.619 528.348,548.443 532.062,548.674 C534.828,548.846 536.209,548.2 535.711,545.163 C535.4,543.271 536.789,543.356 538.07,543.359 C544.371,543.373 550.676,543.258 556.973,543.421 C559.316,543.481 559.914,542.776 559.895,540.473 C559.789,526.998 559.898,513.519 559.791,500.043 C559.771,497.733 560.379,497.013 562.719,497.101 C567.525,497.281 572.344,497.203 577.156,497.129 C578.727,497.105 579.383,497.594 579.297,499.226 C579.191,501.233 579.365,503.256 579.244,505.261 C579.137,507.048 579.697,507.758 581.59,507.695 C585.35,507.568 589.123,507.804 592.875,507.605 C595.346,507.473 596.178,508.145 596.137,510.746 C595.984,520.546 596.193,530.351 596.002,540.149 C595.947,542.944 596.85,543.541 599.412,543.42 C603.691,543.219 607.988,543.441 612.273,543.331 C614.203,543.281 615.361,543.663 614.982,545.894 C614.607,548.109 615.604,548.707 617.756,548.663 C624.141,548.533 630.533,548.705 636.918,548.568 C639.117,548.521 639.715,549.203 639.707,551.374 C639.627,570.277 639.703,589.18 639.607,608.083 C639.596,610.483 640.219,611.242 642.664,611.162 C648.172,610.981 653.691,610.993 659.201,611.158 C661.578,611.229 662.312,610.588 662.299,608.12 C662.193,589.392 662.291,570.664 662.184,551.936 C662.168,549.357 662.709,548.526 665.471,548.546 C684.373,548.68 703.275,548.616 722.18,548.616 C725.777,548.616 725.779,548.615 725.779,545.143 C725.781,540.155 725.85,535.166 725.744,530.179 C725.703,528.318 726.129,527.23 728.184,527.621 C735.428,528.999 741.141,525.443 746.924,521.959 C752.674,518.493 758.521,515.19 764.289,511.754 C765.506,511.029 766.498,511.101 767.676,511.793 C775.947,516.649 784.248,521.457 792.529,526.295 C793.988,527.147 795.467,527.705 797.227,527.643 C800.373,527.533 803.529,527.681 806.678,527.585 C808.307,527.534 808.793,528.156 808.773,529.727 C808.707,535.24 808.814,540.755 808.711,546.266 C808.676,548.115 809.281,548.651 811.109,548.658 C817.15,548.68 817.15,548.749 817.15,554.9 C817.15,572.14 817.191,589.381 817.1,606.621 C817.088,608.894 817.635,609.611 820.002,609.587 C831.641,609.463 843.281,609.46 854.92,609.587 C857.391,609.613 858.184,609.019 858.168,606.432 C858.057,588.317 858.109,570.202 858.109,552.086 C858.109,548.621 858.133,548.381 861.443,548.686 C864.479,548.965 865.396,547.693 866.059,544.948 C868.689,534.042 871.594,523.201 874.4,512.326 C875.211,512.505 875.26,513.082 875.375,513.528 C878.191,524.398 881.051,535.257 883.729,546.162 C884.209,548.119 885.021,548.674 886.92,548.655 C891.738,548.607 891.176,547.926 891.184,552.993 C891.207,565.857 891.244,578.722 891.143,591.587 C891.125,593.819 891.836,594.381 893.975,594.349 C900.117,594.256 900.119,594.344 900.119,588.122 C900.119,568.256 900.16,548.389 900.064,528.524 C900.053,526.108 900.701,525.357 903.131,525.456 C907.543,525.635 907.537,525.493 908.619,521.249 C911.029,511.802 913.459,502.361 915.863,492.913 C916.037,492.231 916.162,491.559 916.984,491 C918.455,493.537 918.662,496.423 919.383,499.11 C921.502,507.013 923.48,514.956 925.371,522.916 C925.865,524.999 926.773,525.631 928.914,525.573 C933.809,525.441 933.182,524.89 933.191,529.871 C933.217,542.735 933.252,555.6 933.152,568.465 C933.135,570.673 933.809,571.547 935.965,571.194 C938.379,570.798 939.104,571.781 939.033,574.208 C938.861,580.154 939.027,586.109 938.945,592.059 C938.924,593.756 939.441,594.394 941.184,594.333 C944.33,594.221 947.488,594.2 950.633,594.339 C952.557,594.424 953.246,593.859 953.197,591.848 C953.07,586.513 953.227,581.171 953.117,575.835 C953.078,573.936 953.561,573.226 955.592,573.254 C963.729,573.359 971.869,573.376 980.006,573.245 C982.201,573.21 982.607,574.012 982.598,575.979 C982.529,589.981 982.629,603.984 982.502,617.985 C982.479,620.573 983.273,621.403 985.754,621.116 C987.309,620.936 988.916,620.95 990.473,621.115 C992.617,621.341 993.109,620.458 993.104,618.434 C993.041,596.381 993.064,574.327 993.064,552.273 C993.064,548.618 993.064,548.617 996.744,548.616 L1023.521,548.616 L1023.521,647.863 C653.068,648.118 285.453,648.118 -82.162,648.107 C-83.107,648.107 -85,599.027 -85,599.027 Z" id="Fill-1"></path>
        </g>
    </g>
</svg>
