<?xml version="1.0" encoding="UTF-8"?>
<svg width="168px" height="55px" viewBox="0 0 168 55" version="1.1" xmlns="http://www.w3.org/2000/svg" xmlns:xlink="http://www.w3.org/1999/xlink">
    <!-- Generator: Sketch 42 (36781) - http://www.bohemiancoding.com/sketch -->
    <title>Combined-Shape</title>
    <desc>Created with Sketch.</desc>
    <defs></defs>
    <g id="Page-1" stroke="none" stroke-width="1" fill="none" fill-rule="evenodd">
        <g id="design" fill-rule="nonzero" fill="#FFFFFF">
            <g id="Page-1">
                <g id="design">
                    <path d="M0,0 L168,0 L168,55 L0,55 L0,0 Z M24.432,40.264 L32.496,40.264 L32.496,4.984 L24.096,4.984 L24.096,19.48 C23.039995,18.263994 21.952006,17.416002 20.832,16.936 C19.711994,16.455998 18.384008,16.216 16.848,16.216 C14.92799,16.216 13.280007,16.583996 11.904,17.32 C10.527993,18.056004 9.400004,19.015994 8.52,20.2 C7.639996,21.384006 7.000002,22.719993 6.6,24.208 C6.199998,25.696007 6,27.175993 6,28.648 C6,30.60001 6.279997,32.351992 6.84,33.904 C7.400003,35.456008 8.175995,36.767995 9.168,37.84 C10.160005,38.912005 11.311993,39.727997 12.624,40.288 C13.936007,40.848003 15.343992,41.128 16.848,41.128 C18.576009,41.128 20.063994,40.792003 21.312,40.12 C22.560006,39.447997 23.599996,38.584005 24.432,37.528 L24.432,40.264 Z M62.768,33.208 L54.704,33.208 C54.479999,34.136005 53.976004,34.847998 53.192,35.344 C52.407996,35.840002 51.440006,36.088 50.288,36.088 C49.455996,36.088 48.720003,35.936002 48.08,35.632 C47.439997,35.327998 46.912002,34.920003 46.496,34.408 C46.079998,33.895997 45.768001,33.304003 45.56,32.632 C45.351999,31.959997 45.264,31.256004 45.296,30.52 L62.96,30.52 C62.992,29.655996 62.952001,28.704005 62.84,27.664 C62.727999,26.623995 62.512002,25.576005 62.192,24.52 C61.871998,23.463995 61.408003,22.432005 60.8,21.424 C60.191997,20.415995 59.408005,19.528004 58.448,18.76 C57.487995,17.991996 56.328007,17.376002 54.968,16.912 C53.607993,16.447998 52.016009,16.216 50.192,16.216 C48.20799,16.216 46.432008,16.519997 44.864,17.128 C43.295992,17.736003 41.960006,18.583995 40.856,19.672 C39.751994,20.760005 38.904003,22.071992 38.312,23.608 C37.719997,25.144008 37.424,26.823991 37.424,28.648 C37.424,30.66401 37.759997,32.447992 38.432,34 C39.104003,35.552008 40.015994,36.855995 41.168,37.912 C42.320006,38.968005 43.679992,39.767997 45.248,40.312 C46.816008,40.856003 48.495991,41.128 50.288,41.128 C50.800003,41.128 51.607994,41.088 52.712,41.008 C53.816006,40.928 54.999994,40.640002 56.264,40.144 C57.528006,39.647998 58.759994,38.864005 59.96,37.792 C61.160006,36.719995 62.095997,35.19201 62.768,33.208 Z M68.56,32.92 L66.208,38.728 C67.552007,39.560004 68.975993,40.167998 70.48,40.552 C71.984008,40.936002 73.69599,41.128 75.616,41.128 C77.53601,41.128 79.151993,40.896002 80.464,40.432 C81.776007,39.967998 82.831996,39.352004 83.632,38.584 C84.432004,37.815996 85.007998,36.936005 85.36,35.944 C85.712002,34.951995 85.888,33.928005 85.888,32.872 C85.888,31.367992 85.600003,30.160005 85.024,29.248 C84.447997,28.335995 83.776004,27.640002 83.008,27.16 C82.239996,26.679998 81.480004,26.352001 80.728,26.176 C79.975996,25.999999 79.440002,25.896 79.12,25.864 C78.255996,25.768 77.560003,25.664001 77.032,25.552 C76.503997,25.439999 76.096001,25.304001 75.808,25.144 C75.519999,24.983999 75.320001,24.792001 75.208,24.568 C75.095999,24.343999 75.04,24.056002 75.04,23.704 C75.04,23.575999 75.056,23.408001 75.088,23.2 C75.12,22.991999 75.223999,22.776001 75.4,22.552 C75.576001,22.327999 75.831998,22.136001 76.168,21.976 C76.504002,21.815999 76.975997,21.736 77.584,21.736 C78.288004,21.736 79.095995,21.879999 80.008,22.168 C80.920005,22.456001 81.887995,22.935997 82.912,23.608 L85.552,18.232 C84.431994,17.687997 83.112008,17.216002 81.592,16.816 C80.071992,16.415998 78.368009,16.216 76.48,16.216 C74.783992,16.216 73.336006,16.439998 72.136,16.888 C70.935994,17.336002 69.952004,17.927996 69.184,18.664 C68.415996,19.400004 67.856002,20.263995 67.504,21.256 C67.151998,22.248005 66.976,23.287995 66.976,24.376 C66.976,26.648011 67.647993,28.311995 68.992,29.368 C70.336007,30.424005 72.271987,31.143998 74.8,31.528 C75.024001,31.56 75.287999,31.608 75.592,31.672 C75.896002,31.736 76.191999,31.831999 76.48,31.96 C76.768001,32.088001 77.007999,32.271999 77.2,32.512 C77.392001,32.752001 77.488,33.063998 77.488,33.448 C77.488,33.800002 77.328002,34.159998 77.008,34.528 C76.687998,34.896002 76.032005,35.08 75.04,35.08 C73.823994,35.08 72.648006,34.856002 71.512,34.408 C70.375994,33.959998 69.392004,33.464003 68.56,32.92 Z M99.552,17.08 L91.152,17.08 L91.152,40.264 L99.552,40.264 L99.552,17.08 Z M90.912,10.36 C90.912,10.968003 91.023999,11.543997 91.248,12.088 C91.472001,12.632003 91.783998,13.103998 92.184,13.504 C92.584002,13.904002 93.055997,14.215999 93.6,14.44 C94.144003,14.664001 94.719997,14.776 95.328,14.776 C95.936003,14.776 96.511997,14.664001 97.056,14.44 C97.600003,14.215999 98.071998,13.904002 98.472,13.504 C98.872002,13.103998 99.183999,12.632003 99.408,12.088 C99.632001,11.543997 99.744,10.968003 99.744,10.36 C99.744,9.751997 99.632001,9.176003 99.408,8.632 C99.183999,8.087997 98.872002,7.616002 98.472,7.216 C98.071998,6.815998 97.600003,6.504001 97.056,6.28 C96.511997,6.055999 95.936003,5.944 95.328,5.944 C94.719997,5.944 94.144003,6.055999 93.6,6.28 C93.055997,6.504001 92.584002,6.815998 92.184,7.216 C91.783998,7.616002 91.472001,8.087997 91.248,8.632 C91.023999,9.176003 90.912,9.751997 90.912,10.36 Z M114.896,42.136 L105.824,42.136 C106.016001,43.384006 106.415997,44.551995 107.024,45.64 C107.632003,46.728005 108.455995,47.671996 109.496,48.472 C110.536005,49.272004 111.799993,49.895998 113.288,50.344 C114.776007,50.792002 116.51199,51.016 118.496,51.016 C120.736011,51.016 122.671992,50.712003 124.304,50.104 C125.936008,49.495997 127.271995,48.664005 128.312,47.608 C129.352005,46.551995 130.119998,45.336007 130.616,43.96 C131.112003,42.583993 131.36,41.128008 131.36,39.592 L131.36,17.08 L123.296,17.08 L123.296,19.432 C122.751997,18.759997 122.144003,18.216002 121.472,17.8 C120.799997,17.383998 120.112004,17.056001 119.408,16.816 C118.703997,16.575999 118.000004,16.416 117.296,16.336 C116.591997,16.256 115.952003,16.216 115.376,16.216 C114.031993,16.216 112.712007,16.455998 111.416,16.936 C110.119994,17.416002 108.960005,18.135995 107.936,19.096 C106.911995,20.056005 106.088003,21.255993 105.464,22.696 C104.839997,24.136007 104.528,25.81599 104.528,27.736 C104.528,29.65601 104.823997,31.391992 105.416,32.944 C106.008003,34.496008 106.839995,35.807995 107.912,36.88 C108.984005,37.952005 110.263993,38.783997 111.752,39.376 C113.240007,39.968003 114.863991,40.264 116.624,40.264 C117.680005,40.264 118.759995,40.112002 119.864,39.808 C120.968006,39.503998 122.111994,38.824005 123.296,37.768 L123.296,39.592 C123.296,40.840006 123.144002,41.815996 122.84,42.52 C122.535999,43.224004 122.152002,43.759998 121.688,44.128 C121.223998,44.496002 120.712003,44.728 120.152,44.824 C119.591997,44.92 119.040003,44.968 118.496,44.968 C117.599996,44.968 116.784004,44.728002 116.048,44.248 C115.311996,43.767998 114.928,43.064005 114.896,42.136 Z M137.536,17.08 L137.536,40.264 L145.936,40.264 L145.936,28.84 C145.936,27.847995 146.063999,26.992004 146.32,26.272 C146.576001,25.551996 146.911998,24.960002 147.328,24.496 C147.744002,24.031998 148.215997,23.688001 148.744,23.464 C149.272003,23.239999 149.807997,23.128 150.352,23.128 C151.056004,23.128 151.607998,23.287998 152.008,23.608 C152.408002,23.928002 152.703999,24.319998 152.896,24.784 C153.088001,25.248002 153.208,25.727998 153.256,26.224 C153.304,26.720002 153.328,27.143998 153.328,27.496 L153.328,40.264 L161.728,40.264 L161.728,26.728 C161.728,25.767995 161.648001,24.688006 161.488,23.488 C161.327999,22.287994 160.968003,21.144005 160.408,20.056 C159.847997,18.967995 159.024005,18.056004 157.936,17.32 C156.847995,16.583996 155.360009,16.216 153.472,16.216 C151.839992,16.216 150.392006,16.527997 149.128,17.152 C147.863994,17.776003 146.800004,18.647994 145.936,19.768 L145.936,17.08 L137.536,17.08 Z M118.4,33.544 C119.040003,33.544 119.671997,33.440001 120.296,33.232 C120.920003,33.023999 121.479998,32.704002 121.976,32.272 C122.472003,31.839998 122.871999,31.280003 123.176,30.592 C123.480002,29.903997 123.632,29.096005 123.632,28.168 C123.632,27.111995 123.448002,26.240003 123.08,25.552 C122.711998,24.863997 122.256003,24.328002 121.712,23.944 C121.167997,23.559998 120.592003,23.296001 119.984,23.152 C119.375997,23.007999 118.848002,22.936 118.4,22.936 C117.951998,22.936 117.432003,23.007999 116.84,23.152 C116.247997,23.296001 115.680003,23.559998 115.136,23.944 C114.591997,24.328002 114.136002,24.863997 113.768,25.552 C113.399998,26.240003 113.216,27.111995 113.216,28.168 C113.216,29.096005 113.367999,29.903997 113.672,30.592 C113.976002,31.280003 114.375998,31.839998 114.872,32.272 C115.368003,32.704002 115.919997,33.023999 116.528,33.232 C117.136003,33.440001 117.759997,33.544 118.4,33.544 Z M19.728,34.216 C21.232008,34.216 22.447995,33.720005 23.376,32.728 C24.304005,31.735995 24.768,30.376009 24.768,28.648 C24.768,26.951992 24.304005,25.608005 23.376,24.616 C22.447995,23.623995 21.232008,23.128 19.728,23.128 C18.831996,23.128 18.064003,23.287998 17.424,23.608 C16.783997,23.928002 16.264002,24.343997 15.864,24.856 C15.463998,25.368003 15.168001,25.959997 14.976,26.632 C14.783999,27.304003 14.688,27.975997 14.688,28.648 C14.688,29.352004 14.783999,30.031997 14.976,30.688 C15.168001,31.344003 15.463998,31.935997 15.864,32.464 C16.264002,32.992003 16.783997,33.415998 17.424,33.736 C18.064003,34.056002 18.831996,34.216 19.728,34.216 Z M54.896,25.96 C54.864,25.351997 54.744001,24.768003 54.536,24.208 C54.327999,23.647997 54.024002,23.152002 53.624,22.72 C53.223998,22.287998 52.744003,21.936001 52.184,21.664 C51.623997,21.391999 50.960004,21.256 50.192,21.256 C48.783993,21.256 47.664004,21.727995 46.832,22.672 C45.999996,23.616005 45.552,24.711994 45.488,25.96 L54.896,25.96 Z" id="Combined-Shape"></path>
                </g>
            </g>
        </g>
    </g>
</svg>