<?xml version="1.0" encoding="UTF-8"?>
<svg width="166px" height="50px" viewBox="0 0 166 50" version="1.1" xmlns="http://www.w3.org/2000/svg" xmlns:xlink="http://www.w3.org/1999/xlink">
    <!-- Generator: Sketch 43.1 (39012) - http://www.bohemiancoding.com/sketch -->
    <title>Combined Shape</title>
    <desc>Created with Sketch.</desc>
    <defs></defs>
    <g id="Page-1" stroke="none" stroke-width="1" fill="none" fill-rule="evenodd">
        <g id="design" transform="translate(-167.000000, -226.000000)" fill="#FFFFFF">
            <path d="M167,226 L333,226 L333,276 L167,276 L167,226 Z M189.432,262.264 L197.496,262.264 L197.496,226.984 L189.096,226.984 L189.096,241.48 C188.039995,240.263994 186.952006,239.416002 185.832,238.936 C184.711994,238.455998 183.384008,238.216 181.848,238.216 C179.92799,238.216 178.280007,238.583996 176.904,239.32 C175.527993,240.056004 174.400004,241.015994 173.52,242.2 C172.639996,243.384006 172.000002,244.719993 171.6,246.208 C171.199998,247.696007 171,249.175993 171,250.648 C171,252.60001 171.279997,254.351992 171.84,255.904 C172.400003,257.456008 173.175995,258.767995 174.168,259.84 C175.160005,260.912005 176.311993,261.727997 177.624,262.288 C178.936007,262.848003 180.343992,263.128 181.848,263.128 C183.576009,263.128 185.063994,262.792003 186.312,262.12 C187.560006,261.447997 188.599996,260.584005 189.432,259.528 L189.432,262.264 Z M227.768,255.208 L219.704,255.208 C219.479999,256.136005 218.976004,256.847998 218.192,257.344 C217.407996,257.840002 216.440006,258.088 215.288,258.088 C214.455996,258.088 213.720003,257.936002 213.08,257.632 C212.439997,257.327998 211.912002,256.920003 211.496,256.408 C211.079998,255.895997 210.768001,255.304003 210.56,254.632 C210.351999,253.959997 210.264,253.256004 210.296,252.52 L227.96,252.52 C227.992,251.655996 227.952001,250.704005 227.84,249.664 C227.727999,248.623995 227.512002,247.576005 227.192,246.52 C226.871998,245.463995 226.408003,244.432005 225.8,243.424 C225.191997,242.415995 224.408005,241.528004 223.448,240.76 C222.487995,239.991996 221.328007,239.376002 219.968,238.912 C218.607993,238.447998 217.016009,238.216 215.192,238.216 C213.20799,238.216 211.432008,238.519997 209.864,239.128 C208.295992,239.736003 206.960006,240.583995 205.856,241.672 C204.751994,242.760005 203.904003,244.071992 203.312,245.608 C202.719997,247.144008 202.424,248.823991 202.424,250.648 C202.424,252.66401 202.759997,254.447992 203.432,256 C204.104003,257.552008 205.015994,258.855995 206.168,259.912 C207.320006,260.968005 208.679992,261.767997 210.248,262.312 C211.816008,262.856003 213.495991,263.128 215.288,263.128 C215.800003,263.128 216.607994,263.088 217.712,263.008 C218.816006,262.928 219.999994,262.640002 221.264,262.144 C222.528006,261.647998 223.759994,260.864005 224.96,259.792 C226.160006,258.719995 227.095997,257.19201 227.768,255.208 Z M233.56,254.92 L231.208,260.728 C232.552007,261.560004 233.975993,262.167998 235.48,262.552 C236.984008,262.936002 238.69599,263.128 240.616,263.128 C242.53601,263.128 244.151993,262.896002 245.464,262.432 C246.776007,261.967998 247.831996,261.352004 248.632,260.584 C249.432004,259.815996 250.007998,258.936005 250.36,257.944 C250.712002,256.951995 250.888,255.928005 250.888,254.872 C250.888,253.367992 250.600003,252.160005 250.024,251.248 C249.447997,250.335995 248.776004,249.640002 248.008,249.16 C247.239996,248.679998 246.480004,248.352001 245.728,248.176 C244.975996,247.999999 244.440002,247.896 244.12,247.864 C243.255996,247.768 242.560003,247.664001 242.032,247.552 C241.503997,247.439999 241.096001,247.304001 240.808,247.144 C240.519999,246.983999 240.320001,246.792001 240.208,246.568 C240.095999,246.343999 240.04,246.056002 240.04,245.704 C240.04,245.575999 240.056,245.408001 240.088,245.2 C240.12,244.991999 240.223999,244.776001 240.4,244.552 C240.576001,244.327999 240.831998,244.136001 241.168,243.976 C241.504002,243.815999 241.975997,243.736 242.584,243.736 C243.288004,243.736 244.095995,243.879999 245.008,244.168 C245.920005,244.456001 246.887995,244.935997 247.912,245.608 L250.552,240.232 C249.431994,239.687997 248.112008,239.216002 246.592,238.816 C245.071992,238.415998 243.368009,238.216 241.48,238.216 C239.783992,238.216 238.336006,238.439998 237.136,238.888 C235.935994,239.336002 234.952004,239.927996 234.184,240.664 C233.415996,241.400004 232.856002,242.263995 232.504,243.256 C232.151998,244.248005 231.976,245.287995 231.976,246.376 C231.976,248.648011 232.647993,250.311995 233.992,251.368 C235.336007,252.424005 237.271987,253.143998 239.8,253.528 C240.024001,253.56 240.287999,253.608 240.592,253.672 C240.896002,253.736 241.191999,253.831999 241.48,253.96 C241.768001,254.088001 242.007999,254.271999 242.2,254.512 C242.392001,254.752001 242.488,255.063998 242.488,255.448 C242.488,255.800002 242.328002,256.159998 242.008,256.528 C241.687998,256.896002 241.032005,257.08 240.04,257.08 C238.823994,257.08 237.648006,256.856002 236.512,256.408 C235.375994,255.959998 234.392004,255.464003 233.56,254.92 Z M264.552,239.08 L256.152,239.08 L256.152,262.264 L264.552,262.264 L264.552,239.08 Z M255.912,232.36 C255.912,232.968003 256.023999,233.543997 256.248,234.088 C256.472001,234.632003 256.783998,235.103998 257.184,235.504 C257.584002,235.904002 258.055997,236.215999 258.6,236.44 C259.144003,236.664001 259.719997,236.776 260.328,236.776 C260.936003,236.776 261.511997,236.664001 262.056,236.44 C262.600003,236.215999 263.071998,235.904002 263.472,235.504 C263.872002,235.103998 264.183999,234.632003 264.408,234.088 C264.632001,233.543997 264.744,232.968003 264.744,232.36 C264.744,231.751997 264.632001,231.176003 264.408,230.632 C264.183999,230.087997 263.872002,229.616002 263.472,229.216 C263.071998,228.815998 262.600003,228.504001 262.056,228.28 C261.511997,228.055999 260.936003,227.944 260.328,227.944 C259.719997,227.944 259.144003,228.055999 258.6,228.28 C258.055997,228.504001 257.584002,228.815998 257.184,229.216 C256.783998,229.616002 256.472001,230.087997 256.248,230.632 C256.023999,231.176003 255.912,231.751997 255.912,232.36 Z M279.896,264.136 L270.824,264.136 C271.016001,265.384006 271.415997,266.551995 272.024,267.64 C272.632003,268.728005 273.455995,269.671996 274.496,270.472 C275.536005,271.272004 276.799993,271.895998 278.288,272.344 C279.776007,272.792002 281.51199,273.016 283.496,273.016 C285.736011,273.016 287.671992,272.712003 289.304,272.104 C290.936008,271.495997 292.271995,270.664005 293.312,269.608 C294.352005,268.551995 295.119998,267.336007 295.616,265.96 C296.112003,264.583993 296.36,263.128008 296.36,261.592 L296.36,239.08 L288.296,239.08 L288.296,241.432 C287.751997,240.759997 287.144003,240.216002 286.472,239.8 C285.799997,239.383998 285.112004,239.056001 284.408,238.816 C283.703997,238.575999 283.000004,238.416 282.296,238.336 C281.591997,238.256 280.952003,238.216 280.376,238.216 C279.031993,238.216 277.712007,238.455998 276.416,238.936 C275.119994,239.416002 273.960005,240.135995 272.936,241.096 C271.911995,242.056005 271.088003,243.255993 270.464,244.696 C269.839997,246.136007 269.528,247.81599 269.528,249.736 C269.528,251.65601 269.823997,253.391992 270.416,254.944 C271.008003,256.496008 271.839995,257.807995 272.912,258.88 C273.984005,259.952005 275.263993,260.783997 276.752,261.376 C278.240007,261.968003 279.863991,262.264 281.624,262.264 C282.680005,262.264 283.759995,262.112002 284.864,261.808 C285.968006,261.503998 287.111994,260.824005 288.296,259.768 L288.296,261.592 C288.296,262.840006 288.144002,263.815996 287.84,264.52 C287.535999,265.224004 287.152002,265.759998 286.688,266.128 C286.223998,266.496002 285.712003,266.728 285.152,266.824 C284.591997,266.92 284.040003,266.968 283.496,266.968 C282.599996,266.968 281.784004,266.728002 281.048,266.248 C280.311996,265.767998 279.928,265.064005 279.896,264.136 Z M302.536,239.08 L302.536,262.264 L310.936,262.264 L310.936,250.84 C310.936,249.847995 311.063999,248.992004 311.32,248.272 C311.576001,247.551996 311.911998,246.960002 312.328,246.496 C312.744002,246.031998 313.215997,245.688001 313.744,245.464 C314.272003,245.239999 314.807997,245.128 315.352,245.128 C316.056004,245.128 316.607998,245.287998 317.008,245.608 C317.408002,245.928002 317.703999,246.319998 317.896,246.784 C318.088001,247.248002 318.208,247.727998 318.256,248.224 C318.304,248.720002 318.328,249.143998 318.328,249.496 L318.328,262.264 L326.728,262.264 L326.728,248.728 C326.728,247.767995 326.648001,246.688006 326.488,245.488 C326.327999,244.287994 325.968003,243.144005 325.408,242.056 C324.847997,240.967995 324.024005,240.056004 322.936,239.32 C321.847995,238.583996 320.360009,238.216 318.472,238.216 C316.839992,238.216 315.392006,238.527997 314.128,239.152 C312.863994,239.776003 311.800004,240.647994 310.936,241.768 L310.936,239.08 L302.536,239.08 Z M283.4,255.544 C284.040003,255.544 284.671997,255.440001 285.296,255.232 C285.920003,255.023999 286.479998,254.704002 286.976,254.272 C287.472003,253.839998 287.871999,253.280003 288.176,252.592 C288.480002,251.903997 288.632,251.096005 288.632,250.168 C288.632,249.111995 288.448002,248.240003 288.08,247.552 C287.711998,246.863997 287.256003,246.328002 286.712,245.944 C286.167997,245.559998 285.592003,245.296001 284.984,245.152 C284.375997,245.007999 283.848002,244.936 283.4,244.936 C282.951998,244.936 282.432003,245.007999 281.84,245.152 C281.247997,245.296001 280.680003,245.559998 280.136,245.944 C279.591997,246.328002 279.136002,246.863997 278.768,247.552 C278.399998,248.240003 278.216,249.111995 278.216,250.168 C278.216,251.096005 278.367999,251.903997 278.672,252.592 C278.976002,253.280003 279.375998,253.839998 279.872,254.272 C280.368003,254.704002 280.919997,255.023999 281.528,255.232 C282.136003,255.440001 282.759997,255.544 283.4,255.544 Z M184.728,256.216 C186.232008,256.216 187.447995,255.720005 188.376,254.728 C189.304005,253.735995 189.768,252.376009 189.768,250.648 C189.768,248.951992 189.304005,247.608005 188.376,246.616 C187.447995,245.623995 186.232008,245.128 184.728,245.128 C183.831996,245.128 183.064003,245.287998 182.424,245.608 C181.783997,245.928002 181.264002,246.343997 180.864,246.856 C180.463998,247.368003 180.168001,247.959997 179.976,248.632 C179.783999,249.304003 179.688,249.975997 179.688,250.648 C179.688,251.352004 179.783999,252.031997 179.976,252.688 C180.168001,253.344003 180.463998,253.935997 180.864,254.464 C181.264002,254.992003 181.783997,255.415998 182.424,255.736 C183.064003,256.056002 183.831996,256.216 184.728,256.216 Z M219.896,247.96 C219.864,247.351997 219.744001,246.768003 219.536,246.208 C219.327999,245.647997 219.024002,245.152002 218.624,244.72 C218.223998,244.287998 217.744003,243.936001 217.184,243.664 C216.623997,243.391999 215.960004,243.256 215.192,243.256 C213.783993,243.256 212.664004,243.727995 211.832,244.672 C210.999996,245.616005 210.552,246.711994 210.488,247.96 L219.896,247.96 Z" id="Combined-Shape"></path>
        </g>
    </g>
</svg>