<?xml version="1.0" encoding="UTF-8"?>
<svg width="197px" height="53px" viewBox="0 0 197 53" version="1.1" xmlns="http://www.w3.org/2000/svg" xmlns:xlink="http://www.w3.org/1999/xlink">
    <!-- Generator: Sketch 42 (36781) - http://www.bohemiancoding.com/sketch -->
    <title>develop-cutout</title>
    <desc>Created with Sketch.</desc>
    <defs></defs>
    <g id="Page-1" stroke="none" stroke-width="1" fill="none" fill-rule="evenodd">
        <g id="develop-cutout" fill-rule="nonzero" fill="#FFFFFF">
            <g id="Page-1">
                <path d="M0,0 L197,0 L197,53 L0,53 L0,0 Z M20.872,39 L28.936,39 L28.936,3.72 L20.536,3.72 L20.536,18.216 C19.4799947,16.9999939 18.3920056,16.1520024 17.272,15.672 C16.1519944,15.1919976 14.8240077,14.952 13.288,14.952 C11.3679904,14.952 9.72000688,15.3199963 8.344,16.056 C6.96799312,16.7920037 5.8400044,17.7519941 4.96,18.936 C4.0799956,20.1200059 3.440002,21.4559926 3.04,22.944 C2.639998,24.4320074 2.44,25.9119926 2.44,27.384 C2.44,29.3360098 2.7199972,31.0879922 3.28,32.64 C3.8400028,34.1920078 4.61599504,35.5039946 5.608,36.576 C6.60000496,37.6480054 7.75199344,38.4639972 9.064,39.024 C10.3760066,39.5840028 11.7839925,39.864 13.288,39.864 C15.0160086,39.864 16.5039938,39.5280034 17.752,38.856 C19.0000062,38.1839966 20.0399958,37.3200053 20.872,36.264 L20.872,39 Z M59.2079999,31.944 L51.1439999,31.944 C50.9199988,32.8720046 50.4160038,33.5839975 49.6319999,34.08 C48.847996,34.5760025 47.8800057,34.824 46.7279999,34.824 C45.8959957,34.824 45.1600031,34.6720015 44.5199999,34.368 C43.8799967,34.0639985 43.352002,33.6560026 42.9359999,33.144 C42.5199978,32.6319974 42.2080009,32.0400034 41.9999999,31.368 C41.7919989,30.6959966 41.7039997,29.9920037 41.7359999,29.256 L59.3999999,29.256 C59.4320001,28.3919957 59.3920005,27.4400052 59.2799999,26.4 C59.1679993,25.3599948 58.9520015,24.3120053 58.6319999,23.256 C58.3119983,22.1999947 57.8480029,21.168005 57.2399999,20.16 C56.6319969,19.151995 55.8480047,18.2640038 54.8879999,17.496 C53.9279951,16.7279962 52.7680067,16.1120023 51.4079999,15.648 C50.0479931,15.1839977 48.456009,14.952 46.6319999,14.952 C44.64799,14.952 42.8720077,15.255997 41.3039999,15.864 C39.7359921,16.472003 38.4000054,17.3199946 37.2959999,18.408 C36.1919944,19.4960054 35.3440029,20.8079923 34.7519999,22.344 C34.1599969,23.8800077 33.8639999,25.5599909 33.8639999,27.384 C33.8639999,29.4000101 34.1999965,31.1839922 34.8719999,32.736 C35.5440033,34.2880078 36.4559941,35.5919947 37.6079999,36.648 C38.7600057,37.7040053 40.1199921,38.5039973 41.6879999,39.048 C43.2560077,39.5920027 44.9359909,39.864 46.7279999,39.864 C47.2400025,39.864 48.0479944,39.8240004 49.1519999,39.744 C50.2560054,39.6639996 51.4399936,39.3760025 52.7039999,38.88 C53.9680062,38.3839975 55.1999939,37.6000054 56.3999999,36.528 C57.6000059,35.4559946 58.5359965,33.9280099 59.2079999,31.944 Z M61.1119998,15.816 L71.8639998,39 L78.4399998,39 L87.9919998,15.816 L79.4479998,15.816 L75.2239998,28.248 L70.1839998,15.816 L61.1119998,15.816 Z M115.048,31.944 L106.984,31.944 C106.759999,32.8720046 106.256004,33.5839975 105.472,34.08 C104.687996,34.5760025 103.720005,34.824 102.568,34.824 C101.735996,34.824 101.000003,34.6720015 100.36,34.368 C99.7199965,34.0639985 99.1920018,33.6560026 98.7759997,33.144 C98.3599976,32.6319974 98.0480007,32.0400034 97.8399997,31.368 C97.6319986,30.6959966 97.5439995,29.9920037 97.5759997,29.256 L115.24,29.256 C115.272,28.3919957 115.232,27.4400052 115.12,26.4 C115.007999,25.3599948 114.792001,24.3120053 114.472,23.256 C114.151998,22.1999947 113.688003,21.168005 113.08,20.16 C112.471997,19.151995 111.688004,18.2640038 110.728,17.496 C109.767995,16.7279962 108.608006,16.1120023 107.248,15.648 C105.887993,15.1839977 104.296009,14.952 102.472,14.952 C100.48799,14.952 98.7120075,15.255997 97.1439997,15.864 C95.5759918,16.472003 94.2400052,17.3199946 93.1359997,18.408 C92.0319942,19.4960054 91.1840026,20.8079923 90.5919997,22.344 C89.9999967,23.8800077 89.7039997,25.5599909 89.7039997,27.384 C89.7039997,29.4000101 90.0399963,31.1839922 90.7119997,32.736 C91.384003,34.2880078 92.2959939,35.5919947 93.4479997,36.648 C94.6000054,37.7040053 95.9599918,38.5039973 97.5279997,39.048 C99.0960075,39.5920027 100.775991,39.864 102.568,39.864 C103.080002,39.864 103.887994,39.8240004 104.992,39.744 C106.096005,39.6639996 107.279993,39.3760025 108.544,38.88 C109.808006,38.3839975 111.039994,37.6000054 112.24,36.528 C113.440006,35.4559946 114.375996,33.9280099 115.048,31.944 Z M120.168,3.72 L120.168,39 L128.568,39 L128.568,3.72 L120.168,3.72 Z M147.367999,39.864 C149.768011,39.864 151.839991,39.5280034 153.583999,38.856 C155.328008,38.1839966 156.767994,37.2720058 157.903999,36.12 C159.040005,34.9679942 159.879997,33.6400075 160.423999,32.136 C160.968002,30.6319925 161.239999,29.0480083 161.239999,27.384 C161.239999,25.7519918 160.968002,24.1840075 160.423999,22.68 C159.879997,21.1759925 159.040005,19.8560057 157.903999,18.72 C156.767994,17.5839943 155.328008,16.6720034 153.583999,15.984 C151.839991,15.2959966 149.768011,14.952 147.367999,14.952 C144.967987,14.952 142.896008,15.2959966 141.151999,15.984 C139.407991,16.6720034 137.968005,17.5839943 136.831999,18.72 C135.695994,19.8560057 134.856002,21.1759925 134.311999,22.68 C133.767997,24.1840075 133.495999,25.7519918 133.495999,27.384 C133.495999,29.0480083 133.767997,30.6319925 134.311999,32.136 C134.856002,33.6400075 135.695994,34.9679942 136.831999,36.12 C137.968005,37.2720058 139.407991,38.1839966 141.151999,38.856 C142.896008,39.5280034 144.967987,39.864 147.367999,39.864 Z M174.231999,15.816 L166.167999,15.816 L166.167999,49.08 L174.567999,49.08 L174.567999,36.648 C175.624005,37.8000058 176.759993,38.6239975 177.975999,39.12 C179.192005,39.6160025 180.487992,39.864 181.863999,39.864 C183.528008,39.864 185.023993,39.5360033 186.351999,38.88 C187.680006,38.2239967 188.815995,37.3280057 189.759999,36.192 C190.704004,35.0559943 191.423997,33.7280076 191.919999,32.208 C192.416002,30.6879924 192.663999,29.0800085 192.663999,27.384 C192.663999,25.5279907 192.408002,23.8320077 191.895999,22.296 C191.383997,20.7599923 190.656004,19.4480054 189.711999,18.36 C188.767995,17.2719946 187.632006,16.432003 186.303999,15.84 C184.975993,15.247997 183.496008,14.952 181.863999,14.952 C180.167991,14.952 178.728005,15.247997 177.543999,15.84 C176.359993,16.432003 175.256004,17.3679936 174.231999,18.648 L174.231999,15.816 Z M51.3359999,24.696 C51.3039997,24.087997 51.1840009,23.5040028 50.9759999,22.944 C50.7679989,22.3839972 50.4640019,21.8880022 50.0639999,21.456 C49.6639979,21.0239978 49.1840027,20.6720014 48.6239999,20.4 C48.0639971,20.1279986 47.4000037,19.992 46.6319999,19.992 C45.2239929,19.992 44.1040041,20.4639953 43.2719999,21.408 C42.4399957,22.3520047 41.9920002,23.4479938 41.9279999,24.696 L51.3359999,24.696 Z M16.168,32.952 C17.6720075,32.952 18.8879954,32.456005 19.816,31.464 C20.7440046,30.471995 21.208,29.1120086 21.208,27.384 C21.208,25.6879915 20.7440046,24.344005 19.816,23.352 C18.8879954,22.359995 17.6720075,21.864 16.168,21.864 C15.2719955,21.864 14.5040032,22.0239984 13.864,22.344 C13.2239968,22.6640016 12.704002,23.0799974 12.304,23.592 C11.903998,24.1040026 11.608001,24.6959966 11.416,25.368 C11.223999,26.0400034 11.128,26.7119966 11.128,27.384 C11.128,28.0880035 11.223999,28.7679967 11.416,29.424 C11.608001,30.0800033 11.903998,30.6719974 12.304,31.2 C12.704002,31.7280026 13.2239968,32.1519984 13.864,32.472 C14.5040032,32.7920016 15.2719955,32.952 16.168,32.952 Z M107.176,24.696 C107.144,24.087997 107.024001,23.5040028 106.816,22.944 C106.607999,22.3839972 106.304002,21.8880022 105.904,21.456 C105.503998,21.0239978 105.024002,20.6720014 104.464,20.4 C103.903997,20.1279986 103.240004,19.992 102.472,19.992 C101.063993,19.992 99.9440038,20.4639953 99.1119997,21.408 C98.2799955,22.3520047 97.832,23.4479938 97.7679997,24.696 L107.176,24.696 Z M147.367999,33.816 C149.064008,33.816 150.351995,33.2240059 151.231999,32.04 C152.112004,30.8559941 152.551999,29.3040096 152.551999,27.384 C152.551999,25.4639904 152.112004,23.9200058 151.231999,22.752 C150.351995,21.5839942 149.064008,21 147.367999,21 C145.671991,21 144.384004,21.5839942 143.503999,22.752 C142.623995,23.9200058 142.183999,25.4639904 142.183999,27.384 C142.183999,29.3040096 142.623995,30.8559941 143.503999,32.04 C144.384004,33.2240059 145.671991,33.816 147.367999,33.816 Z M178.935999,32.952 C180.440007,32.952 181.655995,32.456005 182.583999,31.464 C183.512004,30.471995 183.975999,29.1120086 183.975999,27.384 C183.975999,25.6879915 183.512004,24.344005 182.583999,23.352 C181.655995,22.359995 180.440007,21.864 178.935999,21.864 C178.039995,21.864 177.272003,22.0239984 176.631999,22.344 C175.991996,22.6640016 175.472001,23.0799974 175.071999,23.592 C174.671997,24.1040026 174.376,24.6959966 174.183999,25.368 C173.991998,26.0400034 173.895999,26.7119966 173.895999,27.384 C173.895999,28.0880035 173.991998,28.7679967 174.183999,29.424 C174.376,30.0800033 174.671997,30.6719974 175.071999,31.2 C175.472001,31.7280026 175.991996,32.1519984 176.631999,32.472 C177.272003,32.7920016 178.039995,32.952 178.935999,32.952 Z" id="Combined-Shape"></path>
            </g>
        </g>
    </g>
</svg>