<?xml version="1.0" encoding="UTF-8"?>
<svg width="75px" height="79px" viewBox="0 0 75 79" version="1.1" xmlns="http://www.w3.org/2000/svg" xmlns:xlink="http://www.w3.org/1999/xlink">
    <!-- Generator: Sketch 43.1 (39012) - http://www.bohemiancoding.com/sketch -->
    <title>Page 1</title>
    <desc>Created with Sketch.</desc>
    <defs></defs>
    <g id="Page-1" stroke="none" stroke-width="1" fill="none" fill-rule="evenodd">
        <g id="Artboard" transform="translate(-283.000000, -194.000000)" fill="#000000">
            <g id="Page-1" transform="translate(283.000000, 194.000000)">
                <path d="M47.6901471,49.61516 C45.0010294,56.8828674 38.0269118,60.8592007 28.6016176,60.8592007 L20.2942647,60.8592007 L20.2942647,56.1285637 L0.000147058824,60.9639489 L0.000147058824,78.9999415 L27.8648529,78.9999415 C53.3892647,78.9999415 68.6719118,64.3905007 69.7763235,44.4409526 L47.6901471,49.61516 Z" id="Fill-1"></path>
                <path d="M20.2941176,28.31834 L20.2941176,18.1407993 L28.7220588,18.1407993 C34.7770588,18.1407993 39.8202941,19.7892659 43.3667647,22.908303 L65.1576471,17.6907919 C58.7273529,6.84028815 46.0535294,5.85185185e-05 28.4064706,5.85185185e-05 L0,5.85185185e-05 L0,33.1534326 L20.2941176,28.31834 Z" id="Fill-3"></path>
                <path d="M54.1176471,37.6968689 C54.1176471,40.400717 53.6944118,42.8304059 52.9017647,44.9756948 L74.9317647,39.7570133 C74.9752941,38.9734504 75,38.1825726 75,37.382917 L75,37.1734207 C75,30.63778 73.5879412,24.6829356 70.7964706,19.5733911 L49.4273529,24.6469467 C52.4505882,27.7721281 54.1176471,32.1103985 54.1176471,37.4873726 L54.1176471,37.6968689 Z" id="Fill-5"></path>
                <polygon id="Fill-7" points="25.5882353 51.4462922 25.5882353 30.305307 5.29411765 35.1403996 5.29411765 56.2538811"></polygon>
            </g>
        </g>
    </g>
</svg>